<svg xmlns="http://www.w3.org/2000/svg" viewBox="0 0 1358.35 1358.51"><title>Asset 1</title><g id="Layer_2" data-name="Layer 2"><g id="Layer_1-2" data-name="Layer 1"><path d="M679.25,1314.68A632.32,632.32,0,0,1,357,1226.92l139.27-365H817.55c20.39,0,44.37,16.8,51.34,35.94l29.47,82.21c12.63,34.75,51.49,62,88.48,62h44.29c20.2,0,37.61-8.32,47.76-22.81s12-33.69,5.09-52.68l-268.52-739c-.11-.31-.23-.62-.36-.94a70.4,70.4,0,0,0-129.59-.06c-.14.33-.26.63-.38,1l-9.09,25-9.09-25c-.12-.31-.24-.63-.38-.94a70.38,70.38,0,0,0-129.58.05c-.14.31-.25.64-.37.95l-153.7,422.3C376,668.8,377.86,688,388,702.5s27.56,22.82,47.76,22.82h68.16l-35.33,97H386.06c-37,0-75.85,27.22-88.49,62L211.43,1109.2c-104-113.15-167.6-264.11-167.6-429.95,0-350.93,284.49-635.42,635.42-635.42,333.11,0,606.34,256.32,633.24,582.49H1118.75v39.32h221.52v-.27h18.08C1350.92,294.67,1046.52-3.18,673.3,0,304.4,3.19,3,304.76,0,673.65-1.47,859,71.28,1027.3,190.29,1150.7c15.8,16.38,43.33,10.63,51.5-10.6-4.79-4.55-4.73-4.49.1.09l92.83-242.33c7-19.15,31-36,51.34-36h68.15L314.7,1222.47a31.23,31.23,0,0,0,12.87,38,676,676,0,0,0,351.68,98.07c320.69,0,590.77-225.3,661.3-524.56h-44.84C1226.62,1110.12,976.83,1314.68,679.25,1314.68ZM722.08,241.54a30.86,30.86,0,0,1,56.44,0l268.33,738.47c2.47,6.8,2.34,12.64-.34,16.49s-8.15,5.94-15.38,5.94H986.84c-20.39,0-44.37-16.79-51.33-35.94L906,884.33c-12.61-34.74-51.49-62-88.48-62H510.67L546,725.3l221.82,0c20.21,0,37.62-8.3,47.76-22.82s12-33.7,5.09-52.67L697.08,310.24ZM676,368l107.5,295.31c2.47,6.79,2.34,12.64-.34,16.48s-8.15,6-15.38,6l-207.43,0ZM435.77,685.79c-7.22,0-12.69-2.13-15.38-6s-2.81-9.69-.34-16.48L573.57,241.58a30.86,30.86,0,0,1,56.44,0l25,68.7L518.32,685.77ZM212.53,1110.38q6,6.48,12.17,12.8Q218.54,1116.87,212.53,1110.38Zm127.86,106.45c2.25,1.42,4.55,2.77,6.82,4.17C344.94,1219.6,342.64,1218.26,340.39,1216.83Z"/></g></g></svg>