<svg xmlns="http://www.w3.org/2000/svg" viewBox="0 0 4500 630.06"><defs><style>.cls-1{font-size:436.89px;font-family:Poppins-Medium, Poppins;font-weight:500;}</style></defs><title>Asset 6</title><g id="Layer_2" data-name="Layer 2"><g id="Layer_1-2" data-name="Layer 1"><polygon points="228.5 459.08 0 459.08 265.05 0 305.73 70.46 120 392.3 141.47 392.3 193.48 392.3 266.3 266.16 303.09 329.88 228.5 459.08"/><polygon points="304.41 200.17 342.51 134.17 379.3 197.88 341.25 263.77 304.41 200.17"/><polygon points="339.87 393.59 416.08 393.59 453.89 459.08 302.06 459.08 339.87 393.59"/><polygon points="380.61 68.17 418.72 2.18 455.5 65.89 417.4 131.88 380.61 68.17"/><polygon points="454.18 195.6 492.29 129.6 682.63 459.08 606.3 459.08 454.18 195.6"/><polygon points="453.89 459.08 377.99 327.61 416.08 261.59 530.1 459.08 453.89 459.08"/><text class="cls-1" transform="translate(770.31 375.8)">AMS INFOTECH</text></g></g></svg>