<svg width="26" height="28" viewBox="0 0 26 28" fill="none" xmlns="http://www.w3.org/2000/svg">
<path d="M11.8627 0.407434C12.5515 0.0131916 13.4486 0.0114108 14.1368 0.407434C17.5989 2.36371 21.0621 4.31691 24.5236 6.27437C25.1747 6.64111 25.6102 7.36568 25.6035 8.11588V19.8856C25.6084 20.6668 25.1298 21.4087 24.443 21.7671C20.9922 23.7126 17.5433 25.6605 14.0931 27.606C13.3901 28.0079 12.475 27.977 11.794 27.5421C10.7594 26.9424 9.72314 26.3456 8.68852 25.7465C8.4771 25.6204 8.23877 25.5201 8.08949 25.3151C8.22146 25.1373 8.45741 25.1151 8.64914 25.0374C9.08098 24.9001 9.47759 24.6797 9.87431 24.4658C9.97463 24.3971 10.0971 24.4235 10.1933 24.4849C11.0779 24.9921 11.9547 25.5141 12.8424 26.0165C13.0317 26.1258 13.2234 25.9806 13.3853 25.8904C16.7715 23.9766 20.1619 22.07 23.5475 20.1556C23.673 20.0952 23.7423 19.962 23.7321 19.8246C23.7345 15.9421 23.7327 12.0588 23.7333 8.17623C23.7477 8.02031 23.6575 7.87696 23.5165 7.81315C20.0777 5.87657 16.6407 3.93701 13.2026 1.99993C13.143 1.95898 13.0724 1.93701 13.0001 1.9369C12.9279 1.9368 12.8572 1.95856 12.7975 1.99934C9.35937 3.93701 5.92298 5.87835 2.48482 7.81483C2.34433 7.87874 2.25005 8.01972 2.26677 8.17623C2.26736 12.0588 2.26677 15.9421 2.26677 19.8252C2.26081 19.8923 2.27554 19.9595 2.30897 20.018C2.3424 20.0764 2.39293 20.1232 2.45375 20.152C3.37124 20.6723 4.28992 21.1889 5.20801 21.7074C5.72522 21.9858 6.36026 22.1512 6.93011 21.9379C7.43298 21.7576 7.78547 21.2444 7.77587 20.7105C7.78062 16.8505 7.7735 12.99 7.77943 9.13072C7.76687 8.95937 7.92941 8.8178 8.09601 8.83393C8.53685 8.83096 8.97829 8.82799 9.41913 8.83511C9.60314 8.83096 9.72977 9.01547 9.70702 9.1881C9.70524 13.0725 9.71176 16.9569 9.70405 20.8412C9.70524 21.8765 9.27993 23.0029 8.32237 23.5094C7.14271 24.1205 5.68466 23.9909 4.51924 23.405C3.51034 22.9014 2.54754 22.3071 1.55654 21.7676C0.867879 21.4112 0.391722 20.6663 0.39657 19.8857V8.11588C0.389348 7.35015 0.842157 6.61242 1.51351 6.25102C4.96364 4.30395 8.41319 2.3554 11.8627 0.407434Z" fill="#8CC84B"/>
<path d="M14.8725 8.56034C16.3773 8.46348 17.9882 8.50296 19.3422 9.24425C20.3906 9.81232 20.9718 11.0045 20.9903 12.1693C20.9611 12.3264 20.7968 12.413 20.6469 12.4022C20.2103 12.4016 19.7736 12.4082 19.337 12.3993C19.1518 12.4064 19.0442 12.2356 19.0209 12.0719C18.8955 11.5146 18.5915 10.9627 18.067 10.6939C17.2618 10.2907 16.3282 10.311 15.4502 10.3194C14.8092 10.3535 14.1199 10.409 13.5769 10.7859C13.16 11.0714 13.0334 11.6478 13.1822 12.112C13.3225 12.4453 13.7072 12.5528 14.022 12.6519C15.8354 13.1262 17.7571 13.079 19.5359 13.7032C20.2723 13.9576 20.9927 14.4523 21.2448 15.2234C21.5745 16.2568 21.43 17.4921 20.6947 18.3217C20.0985 19.0044 19.2301 19.376 18.3639 19.5778C17.2117 19.8348 16.0159 19.8413 14.8457 19.7272C13.7454 19.6018 12.6004 19.3127 11.7509 18.563C11.0246 17.9323 10.6698 16.9496 10.705 16.0012C10.7134 15.841 10.8729 15.7293 11.0264 15.7425C11.466 15.7389 11.9057 15.7377 12.3453 15.7431C12.5209 15.7305 12.6511 15.8823 12.6601 16.0478C12.7412 16.5787 12.9408 17.136 13.4038 17.4508C14.2973 18.0273 15.4185 17.9878 16.4417 18.0039C17.2893 17.9664 18.2408 17.955 18.9326 17.3947C19.2975 17.0752 19.4057 16.5406 19.307 16.0806C19.2002 15.6923 18.794 15.5114 18.4451 15.393C16.655 14.8268 14.7119 15.0322 12.939 14.3919C12.2193 14.1375 11.5233 13.6566 11.2468 12.9172C10.8609 11.8707 11.0377 10.5763 11.8501 9.77462C12.6421 8.97723 13.7855 8.67015 14.8725 8.56024V8.56034Z" fill="#8CC84B"/>
</svg>
